<?xml version="1.0" ?><svg height="100" id="svg8" version="1.1" viewBox="0 0 31.75 31.75" width="100" xmlns="http://www.w3.org/2000/svg" xmlns:cc="http://creativecommons.org/ns#" xmlns:dc="http://purl.org/dc/elements/1.1/" xmlns:rdf="http://www.w3.org/1999/02/22-rdf-syntax-ns#" xmlns:svg="http://www.w3.org/2000/svg"><defs id="defs2"><pattern height="6" id="EMFhbasepattern" patternUnits="userSpaceOnUse" width="6" x="0" y="0"/><pattern height="6" id="EMFhbasepattern-3" patternUnits="userSpaceOnUse" width="6" x="0" y="0"/><pattern height="6" id="EMFhbasepattern-4" patternUnits="userSpaceOnUse" width="6" x="0" y="0"/><pattern height="6" id="EMFhbasepattern-6" patternUnits="userSpaceOnUse" width="6" x="0" y="0"/><pattern height="6" id="EMFhbasepattern-9" patternUnits="userSpaceOnUse" width="6" x="0" y="0"/><pattern height="6" id="EMFhbasepattern-2" patternUnits="userSpaceOnUse" width="6" x="0" y="0"/><pattern height="6" id="EMFhbasepattern-5" patternUnits="userSpaceOnUse" width="6" x="0" y="0"/><pattern height="6" id="EMFhbasepattern-95" patternUnits="userSpaceOnUse" width="6" x="0" y="0"/><pattern height="6" id="EMFhbasepattern-3-2" patternUnits="userSpaceOnUse" width="6" x="0" y="0"/><pattern height="6" id="EMFhbasepattern-4-5" patternUnits="userSpaceOnUse" width="6" x="0" y="0"/><pattern height="6" id="EMFhbasepattern-6-1" patternUnits="userSpaceOnUse" width="6" x="0" y="0"/><pattern height="6" id="EMFhbasepattern-9-3" patternUnits="userSpaceOnUse" width="6" x="0" y="0"/><pattern height="6" id="EMFhbasepattern-7" patternUnits="userSpaceOnUse" width="6" x="0" y="0"/><pattern height="6" id="EMFhbasepattern-0" patternUnits="userSpaceOnUse" width="6" x="0" y="0"/><pattern height="6" id="EMFhbasepattern-49" patternUnits="userSpaceOnUse" width="6" x="0" y="0"/></defs><g id="layer1" transform="translate(0,-270.54165)"><g id="g5061" transform="translate(3.7602218e-4,-2.6106868e-4)"><path d="m 53.291016,14.996094 c -5.07939,0 -10.076421,1.07529 -14.714844,3.048828 0.05479,0.156271 0.101185,0.316333 0.123047,0.482422 h 0.0059 l 0.0078,0.06641 L 39.308594,23 c 4.373868,-2.057835 9.152216,-3.169922 13.982422,-3.169922 17.832885,0 32.259765,14.319744 32.259765,32.142578 0,17.95052 -14.426865,32.259766 -32.259765,32.259766 -17.832898,0 -32.265625,-14.309246 -32.265625,-32.259766 0,-3.72661 0.71193,-7.4731 2.027343,-11.052734 l -4.863281,-0.748047 c -1.293514,3.810992 -1.998047,7.7945 -1.998047,11.800781 0,20.554709 16.666413,37.09961 37.09961,37.09961 20.433196,0 37.09375,-16.544901 37.09375,-37.09961 0,-20.443307 -16.660541,-36.976562 -37.09375,-36.976562 z m -28.152344,21.330078 -0.02734,0.01563 0.01758,0.002 c 0.0032,-0.0059 0.0066,-0.01168 0.0098,-0.01758 z" id="path5010" style="color:#000000;font-style:normal;font-variant:normal;font-weight:normal;font-stretch:normal;font-size:medium;line-height:normal;font-family:sans-serif;font-variant-ligatures:normal;font-variant-position:normal;font-variant-caps:normal;font-variant-numeric:normal;font-variant-alternates:normal;font-feature-settings:normal;text-indent:0;text-align:start;text-decoration:none;text-decoration-line:none;text-decoration-style:solid;text-decoration-color:#000000;letter-spacing:normal;word-spacing:normal;text-transform:none;writing-mode:lr-tb;direction:ltr;text-orientation:mixed;dominant-baseline:auto;baseline-shift:baseline;text-anchor:start;white-space:normal;shape-padding:0;clip-rule:nonzero;display:inline;overflow:visible;visibility:visible;opacity:1;isolation:auto;mix-blend-mode:normal;color-interpolation:sRGB;color-interpolation-filters:linearRGB;solid-color:#000000;solid-opacity:1;vector-effect:none;fill:#2d3e50;fill-opacity:1;fill-rule:nonzero;stroke:none;stroke-width:4.83779526;stroke-linecap:butt;stroke-linejoin:miter;stroke-miterlimit:4;stroke-dasharray:none;stroke-dashoffset:0;stroke-opacity:1;color-rendering:auto;image-rendering:auto;shape-rendering:auto;text-rendering:auto;enable-background:accumulate" transform="matrix(0.3175,0,0,0.3175,0,270.54165)"/><path d="m 30.769531,10.929688 c -0.393897,0.0072 -0.780086,0.110412 -1.125,0.300781 l -6.101562,3.347656 c -0.0065,0.0019 -0.01303,0.0039 -0.01953,0.0059 l -5.972657,3.351563 c -0.38978,0.218126 -0.711561,0.539907 -0.929687,0.929687 l -3.351563,5.978516 c -0.002,0.0065 -0.0039,0.01301 -0.0059,0.01953 l -3.3535158,6.095703 c -0.5162001,0.94288 -0.348317,2.113286 0.4121098,2.873047 l 2.75,2.75 2.75,2.75 c 0.362894,0.363734 0.832174,0.602478 1.339843,0.681641 l 21.658203,3.330078 c 0.159313,0.03535 0.331487,0.03234 0.480469,0.04687 1.335958,5.66e-4 2.419409,-1.082011 2.419922,-2.417969 0.0035,-0.158381 -0.0276,-0.293101 -0.04102,-0.435547 l -2.966797,-21.943359 -0.0078,-0.06641 h -0.0059 c -0.06923,-0.525956 -0.309418,-1.014574 -0.683594,-1.390625 l -2.748047,-2.75 -2.75,-2.75 C 32.054511,11.174307 31.42386,10.919228 30.769531,10.929688 Z m -0.386719,5.412109 1.464844,1.464844 1.47461,1.476562 -5.38086,9.990235 -5.457031,2.990234 -4.503906,2.386719 -1.488281,-1.488282 -1.464844,-1.464843 2.466797,-4.503907 3.015625,-5.36914 5.36914,-3.015625 z m 4.527344,10.193359 1.001953,7.44336 -3.216797,-3.339844 z m -5.634765,7.523438 3.308593,3.433594 -7.472656,-1.150391 z" id="path5012" style="color:#000000;font-style:normal;font-variant:normal;font-weight:normal;font-stretch:normal;font-size:medium;line-height:normal;font-family:sans-serif;font-variant-ligatures:normal;font-variant-position:normal;font-variant-caps:normal;font-variant-numeric:normal;font-variant-alternates:normal;font-feature-settings:normal;text-indent:0;text-align:start;text-decoration:none;text-decoration-line:none;text-decoration-style:solid;text-decoration-color:#000000;letter-spacing:normal;word-spacing:normal;text-transform:none;writing-mode:lr-tb;direction:ltr;text-orientation:mixed;dominant-baseline:auto;baseline-shift:baseline;text-anchor:start;white-space:normal;shape-padding:0;clip-rule:nonzero;display:inline;overflow:visible;visibility:visible;opacity:1;isolation:auto;mix-blend-mode:normal;color-interpolation:sRGB;color-interpolation-filters:linearRGB;solid-color:#000000;solid-opacity:1;vector-effect:none;fill:#e64c66;fill-opacity:1;fill-rule:nonzero;stroke:none;stroke-width:4.83779526;stroke-linecap:butt;stroke-linejoin:round;stroke-miterlimit:4;stroke-dasharray:none;stroke-dashoffset:0;stroke-opacity:1;color-rendering:auto;image-rendering:auto;shape-rendering:auto;text-rendering:auto;enable-background:accumulate" transform="matrix(0.3175,0,0,0.3175,0,270.54165)"/></g></g></svg>